<?xml version="1.0" encoding="UTF-8"?><svg id="a" xmlns="http://www.w3.org/2000/svg" width="257.861" height="60.953" viewBox="0 0 257.861 60.953"><defs><style>.b{fill:#faaa42;}.c{fill:#f7903e;}.d{fill:#f05872;}.e{fill:#fff;}.f{fill:#c72035;}.g{fill:none;stroke:#fff;stroke-linecap:round;stroke-linejoin:round;stroke-width:6px;}</style></defs><rect class="f" x="0" y="0" width="30.476" height="30.476"/><rect class="c" x="30.476" y="30.476" width="30.476" height="30.476"/><rect class="d" x="30.476" y="0" width="30.476" height="30.476"/><rect class="b" x="0" y="30.476" width="30.476" height="30.476"/><line class="g" x1="45.751" y1="45.751" x2="55.461" y2="45.751"/><path class="g" d="m32.541,45.751h-13.54c-4.202,0-7.609-3.407-7.609-7.609v-19.141c0-4.202,3.407-7.609,7.609-7.609h19.141c4.202,0,7.609,3.407,7.609,7.609v36.46"/><path class="e" d="m88.98,21.259c-1.479,0-2.678,1.199-2.678,2.678v13.754c0,.971-.174,1.872-.52,2.704-.347.832-.824,1.543-1.43,2.132-.607.59-1.326,1.049-2.158,1.378-.832.33-1.751.494-2.756.494-1.352,0-2.505-.312-3.458-.937-.954-.624-1.682-1.516-2.184-2.678-.503-1.161-.754-2.539-.754-4.134v-12.714c0-1.479-1.199-2.678-2.678-2.678s-2.678,1.199-2.678,2.678v14.17c0,2.254.39,4.195,1.17,5.824.78,1.63,1.889,2.895,3.328,3.796,1.438.9,3.128,1.352,5.07,1.352,1.56,0,3.016-.304,4.368-.91,1.352-.605,2.522-1.43,3.51-2.47.453-.476.838-.981,1.17-1.508v1.691c0,1.479,1.199,2.678,2.678,2.678s2.678-1.199,2.678-2.678v-21.944c0-1.479-1.199-2.678-2.678-2.678Z"/><path class="e" d="m101.913,8.467c-1.11,0-1.985.312-2.626.936-.642.624-.962,1.438-.962,2.444,0,1.075.312,1.907.936,2.496.624.59,1.508.884,2.652.884,1.109,0,1.984-.312,2.626-.936.641-.624.962-1.438.962-2.444,0-1.074-.312-1.906-.936-2.496-.624-.589-1.508-.884-2.652-.884Z"/><path class="e" d="m101.991,21.259c-1.479,0-2.678,1.199-2.678,2.678v21.944c0,1.479,1.199,2.678,2.678,2.678s2.678-1.199,2.678-2.678v-21.944c0-1.479-1.199-2.678-2.678-2.678Z"/><path class="e" d="m119.599,26.745c1.3-.814,2.782-1.222,4.446-1.222.901,0,1.837.191,2.808.572.97.382,1.889.902,2.756,1.56.188.143.368.289.542.438.977.842,2.468.668,3.282-.332l.11-.135c.743-.912.695-2.238-.115-3.091-.891-.938-1.982-1.727-3.272-2.367-1.994-.988-4.204-1.482-6.63-1.482-2.531,0-4.793.624-6.786,1.872-1.994,1.248-3.571,2.947-4.732,5.096-1.162,2.15-1.742,4.559-1.742,7.229s.58,5.078,1.742,7.228c1.161,2.149,2.738,3.848,4.732,5.096,1.993,1.248,4.255,1.872,6.786,1.872,2.218,0,4.359-.503,6.422-1.508,1.286-.627,2.387-1.362,3.303-2.205.901-.829.978-2.228.205-3.178l-.053-.065c-.848-1.041-2.369-1.122-3.387-.246-.202.173-.406.338-.614.494-.832.624-1.69,1.092-2.574,1.404-.884.312-1.794.468-2.73.468-1.595,0-3.051-.416-4.368-1.248-1.318-.832-2.375-1.95-3.172-3.354-.798-1.404-1.196-2.99-1.196-4.758s.381-3.363,1.144-4.785c.762-1.421,1.794-2.539,3.094-3.354Z"/><path class="e" d="m151.445,33.276l8.282-7.766c1.626-1.524.547-4.251-1.681-4.251h0c-.649,0-1.271.256-1.731.713l-11.605,11.512V11.757c0-1.479-1.199-2.678-2.678-2.678s-2.678,1.199-2.678,2.678v34.125c0,1.479,1.199,2.678,2.678,2.678s2.678-1.199,2.678-2.678v-6.289l2.975-2.79,9.341,10.898c.467.545,1.149.859,1.866.859h.367c2.104,0,3.235-2.471,1.862-4.064l-9.676-11.219Z"/><path class="e" d="m185.103,11.809v-.052c0-1.479-1.199-2.678-2.678-2.678h-20.956c-1.479,0-2.678,1.199-2.678,2.678v.052c0,1.479,1.199,2.678,2.678,2.678h7.514v31.395c0,1.479,1.199,2.678,2.678,2.678h.26c1.479,0,2.678-1.199,2.678-2.678V14.487s7.826,0,7.826,0c1.479,0,2.678-1.199,2.678-2.678Z"/><path class="e" d="m196.624,20.71c-.024.001-.047.003-.071.004-1.053.065-2.072.391-3.064.909-1.196.624-2.254,1.474-3.172,2.548-.593.693-1.061,1.443-1.43,2.237v-2.47c0-1.479-1.199-2.678-2.678-2.678h-.052c-1.479,0-2.678,1.199-2.678,2.678v21.944c0,1.479,1.199,2.678,2.678,2.678h.052c1.479,0,2.678-1.199,2.678-2.678v-12.402c0-1.005.19-1.933.572-2.782.381-.849.892-1.594,1.534-2.236.641-.641,1.391-1.133,2.236-1.508,1.243-.551,2.358-.649,3.26-.567,1.381.126,2.631-.819,2.956-2.167.436-1.811-.961-3.604-2.821-3.509Z"/><path class="e" d="m207.347,8.467c-1.11,0-1.985.312-2.626.936-.642.624-.962,1.438-.962,2.444,0,1.075.312,1.907.936,2.496.624.59,1.508.884,2.652.884,1.109,0,1.984-.312,2.626-.936.641-.624.962-1.438.962-2.444,0-1.074-.312-1.906-.936-2.496-.624-.589-1.508-.884-2.652-.884Z"/><path class="e" d="m207.425,21.259c-1.479,0-2.678,1.199-2.678,2.678v21.944c0,1.479,1.199,2.678,2.678,2.678s2.678-1.199,2.678-2.678v-21.944c0-1.479-1.199-2.678-2.678-2.678Z"/><path class="e" d="m256.847,25.835c-.676-1.698-1.682-2.964-3.016-3.796-1.335-.832-3.025-1.248-5.07-1.248-.936,0-1.89.156-2.86.468-.971.312-1.89.746-2.756,1.3-.867.555-1.638,1.188-2.314,1.898-.622.654-1.104,1.348-1.476,2.074-.332-1.003-.764-1.88-1.306-2.62-.763-1.04-1.734-1.82-2.912-2.34-1.179-.52-2.548-.78-4.108-.78-1.075,0-2.124.191-3.146.572-1.023.382-1.976.893-2.86,1.534-.884.642-1.63,1.378-2.236,2.21-.121.166-.23.334-.338.503v-1.673c0-1.479-1.199-2.678-2.678-2.678h-.052c-1.479,0-2.678,1.199-2.678,2.678v21.944c0,1.479,1.199,2.678,2.678,2.678h.052c1.479,0,2.678-1.199,2.678-2.678v-13.755c0-.901.173-1.742.52-2.522.346-.78.832-1.456,1.456-2.028.624-.572,1.352-1.022,2.184-1.352.832-.329,1.733-.494,2.704-.494,1.144,0,2.114.26,2.912.78.797.52,1.404,1.274,1.82,2.262.416.988.624,2.193.624,3.615v13.494c0,1.479,1.199,2.678,2.678,2.678h.052c1.479,0,2.678-1.199,2.678-2.678v-13.65c0-.937.173-1.794.52-2.574.346-.78.832-1.464,1.456-2.054.624-.589,1.36-1.048,2.21-1.378.849-.329,1.759-.494,2.73-.494,1.248,0,2.271.243,3.068.728.797.486,1.395,1.222,1.794,2.21.398.988.598,2.262.598,3.822v13.39c0,1.479,1.199,2.678,2.678,2.678h.052c1.479,0,2.678-1.199,2.678-2.678v-13.702c0-2.531-.338-4.646-1.014-6.345Z"/></svg>